<?xml version="1.0" encoding="utf-8"?>
<!-- Generator: Adobe Illustrator 23.0.6, SVG Export Plug-In . SVG Version: 6.00 Build 0)  -->
<svg version="1.1" id="Capa_1" xmlns="http://www.w3.org/2000/svg" xmlns:xlink="http://www.w3.org/1999/xlink" x="0px" y="0px"
	 viewBox="0 0 1167 558" style="enable-background:new 0 0 1167 558;" xml:space="preserve">
<style type="text/css">
	.st0{fill:#FFFFFF;}
</style>
<path class="st0" d="M87,185c1.1-1.4,2.4-2.6,3.3-4.1c24.3-38,48.6-76,72.9-114.1c0.9-1.4,1.9-2.7,3.3-4.8c0.3,1.7,0.7,2.7,0.7,3.6
	c0.6,23.3,0.6,23.3-11.1,43.6c-14,24.2-27.9,48.5-42,72.6c-1.7,3-1.8,5.1,0,8.1c16.6,28.5,33,57.1,49.6,85.6
	c2.5,4.3,3.9,8.6,3.7,13.6c-0.3,6.6-0.1,13.2-1.1,20.2c-1.1-1.6-2.2-3.1-3.2-4.7c-24.3-38-48.6-76-72.9-114
	c-0.8-1.3-2.1-2.4-3.1-3.6C87,186.3,87,185.7,87,185z"/>
<path class="st0" d="M618,18c1.2,1.1,2.3,2.3,3.6,3.2c16.7,11.3,33.4,22.5,50.1,33.8c1.5,1,2.9,2,5.3,3.7
	c-7.5,0.2-13.5,0.6-19.6-3.1c-12.1-7.4-24.7-13.9-37-20.9c-2.5-1.4-4.3-1.4-6.8,0c-11.4,6.5-23.1,12.6-34.3,19.4
	c-6.6,4-13.3,5.8-21.8,4.3C577.7,44.7,597.4,31.4,617,18C617.3,18,617.7,18,618,18z"/>
<path class="st0" d="M242,255c-10.2-3.4-19.7-7.7-27.5-15c-12.5-11.8-18.4-26.9-20.3-43.4c-3.2-27.4,1-53.7,13.8-78.5
	c19.4-37.6,63-58.1,104.1-47.7c27.4,6.9,44.3,25.2,48.4,53c5.8,39.5-3.3,75.3-31.7,104.5c-19.3,19.9-43.4,29.1-71.2,28.2
	c-1.7-0.1-3.3-0.1-5-0.1c-0.3,0-0.6,0.1-0.3,0.1c20.1,9,40.5,18.2,61.1,27.3c3.5,1.5,7.2,2.5,11,3.3c10.5,2.3,17.4-1.4,21.6-11.3
	c1.5-3.5,2.4-7.2,3.5-10.9c6.6,0.5,7.5,1.2,5.4,7.3c-2.8,8.3-5.6,16.9-10.2,24.2c-9.6,15.2-25.7,18.8-41.2,9.9
	c-16.2-9.3-32-19.2-48-28.7c-3.6-2.1-7.3-4-11.2-5.3c-12.6-4.1-21.7,0.9-25.4,13.5c-1,3.6-1.5,7.4-2.2,11.1c-4.8-1.5-6-4.5-5.7-9.2
	c1-15.8,9.3-27.7,22.3-30.9C236.1,255.7,239.1,255.5,242,255z M225.4,190.5c0.5,4.7,0.8,13.2,2.7,21.4c3.3,14.8,10.3,27.2,26.3,31.6
	c9.5,2.6,19.1,2.3,28.5-1.2c15.8-5.9,25.2-18.1,32.1-32.5c10.1-20.9,14.4-43.2,14.8-66.2c0.2-11.8-1-24-3.7-35.5
	c-6.5-27.8-31.5-33.3-53.3-26.8c-15.3,4.6-24.5,16.1-31.1,29.8C230.1,135,226.3,160.5,225.4,190.5z"/>
<path class="st0" d="M662.4,123c0-6.6-0.4-12.9,0.1-19.2c0.5-5.8-1.5-9.9-6.4-12.4c-24.1-12.3-58.9-15.4-78.1,19.7
	c-10,18.4-13.6,38.4-14.4,59.1c-0.6,14.3-0.3,28.6,4.5,42.4c5.6,16,17.3,24.8,34.1,26.3c15.4,1.4,29.3-2.8,42.5-10.2
	c5.2-2.9,10.2-6.2,16-9.7c0.5,1.2,1.7,2.5,1.4,3.5c-1.1,4.8-2.3,9.2-7.2,12.3c-15,9.5-30.1,18.4-48.2,20.6c-12.5,1.5-25,1-37-3.1
	c-21.1-7.1-32.8-22.7-36.3-43.8c-7.2-42.4,2.8-80.4,32.9-112c28.1-29.5,72-37.1,108.5-19.3c2.5,1.2,3.5,2.3,2.9,5.3
	c-2.8,12.7-5.1,25.4-7.9,38.1C668.6,125.8,664.8,122.7,662.4,123z"/>
<path class="st0" d="M982.5,79.3c-3.1,14.6-6.1,29-9.2,43.8c-2,0-4.3,0-7.2,0c0.3-6.2,0.3-12.4,1.1-18.4c0.9-7.4-2.6-11.9-8.8-14.6
	c-32.6-14-62.6-8.6-78.5,26.6c-12.8,28.3-15.2,58.3-9.3,88.5c5.2,26.1,22.6,37.5,53.3,33.1c13.8-2,25.5-9.2,37.1-16.5
	c1.5-0.9,3.4-1.1,5.1-1.7c-0.1,1.9,0,3.7-0.2,5.6c-0.4,4.4-3.2,6.9-6.7,9.2c-14.9,9.8-30.1,18.5-48.2,20.5
	c-16.7,1.8-33,0.6-47.9-8.2c-15.1-9-23-23.2-25.4-39.9c-6.7-45.7,4.7-85.7,40-116.9c28.5-25.2,69.3-29.5,103.2-12.2
	C981.5,78.5,982,79,982.5,79.3z"/>
<path class="st0" d="M758.5,306.1c-7.1,0-14,0-21.3,0c0-81.6,0-163,0-244.7c7,0,13.9,0,21.3,0C758.5,142.8,758.5,224.3,758.5,306.1z
	"/>
<path class="st0" d="M432.4,306.4c0-82.2,0-163.5,0-245c7.1,0,14,0,21.6,0c0.1,1.7,0.3,3.4,0.3,5.2c0,78,0,155.9,0.1,233.9
	c0,4.9-1.4,6.4-6.2,6.1C443.1,306.1,437.9,306.4,432.4,306.4z"/>
<path class="st0" d="M1010.8,310.4c0-10-0.1-18.7,0.1-27.3c0.1-1.8,1.3-3.7,2.3-5.4c16.6-28.9,33.2-57.7,50-86.5
	c2.3-4,2.2-6.8-0.1-10.7c-16.6-28.4-33.1-57-49.4-85.7c-1.8-3.1-2.6-7.1-2.8-10.8c-0.4-7-0.1-14-0.1-22.2c1.5,1.7,2.4,2.5,3,3.5
	c24.9,39,49.9,78,74.8,117c1.3,2,2.4,3.5,0.7,6.2c-25.6,39.8-51,79.7-76.4,119.5C1012.5,308.4,1012.2,308.8,1010.8,310.4z"/>
<path class="st0" d="M157.5,405c7.3,2.3,14.6,4.6,22,6.9c-2.1,2.8-4.9,4.9-9.5,3c-3.2-1.3-6.6-2.1-9.9-3.3
	c-4.7-1.7-9.3-3.4-14.1,0.2c-0.2-0.4-0.4-0.7-0.5-1.1c2.3-2.1,4.7-4.2,7.2-6.5c-1-0.3-1.7-0.5-2.5-0.7c-12.4-2.5-19.2-9.6-21-22
	c-2-14,3-25.9,13.2-31.5c17.4-9.4,37,1.7,37.7,21.4c0.5,13.9-5.8,25.6-16.7,30.4c-1.8,0.8-3.7,1.2-5.6,1.9
	C157.7,404.1,157.6,404.5,157.5,405z M174.2,375.1c-1.8-5.4-2.7-12.1-5.9-17.5c-6.2-10.7-22.5-10.4-28.9,0.1
	c-6.2,10.1-4,29.6,4.2,38c8.2,8.4,21.9,6.2,26.5-4.5C172.2,386.5,172.7,381.3,174.2,375.1z"/>
<path class="st0" d="M498.9,500.5c-3.4,0-6.8,0-10.9,0c0-6,0-11.9,0-17.9c0-2.5,0-5-0.5-7.4c-0.8-3.6-2.4-6.9-6.9-6.4
	c-4.2,0.5-7.5,2.7-7.8,7.1c-0.4,6.5-0.3,13,0.2,19.4c0.1,1.7,2.8,3.2,4.4,5c-5.1,0-10.5,0-15.9,0c7.1-1.9,5.6-7.7,5.4-12.6
	c-0.2-5.1-0.4-10.3-1.7-15.2c-0.4-1.6-4-3.4-6.2-3.4c-3.7,0-7,2.4-7.2,6.3c-0.4,6.8-0.4,13.6,0.1,20.4c0.1,1.5,2.8,2.8,4.7,4.5
	c-5.5,0-10.8,0-16.2,0c7.9-2.1,5.2-8.6,5.5-13.7c0.2-3.3-0.1-6.7,0.1-10c0.2-4.2,0.1-8.2-5.8-9c3.5-1.1,7-2.2,10.8-3.4
	c0.3,2,0.6,3.7,1,5.5c11.1-7.6,14.2-7.5,20.3,1.3c1.4-1.3,2.7-2.5,4-3.8c2.8-2.9,6.1-3.9,10-2.6c3.9,1.3,6.2,4,6.6,7.9
	c0.5,5.8,0.6,11.6,0.8,17.4C493.8,494.3,492.7,499.1,498.9,500.5z"/>
<path class="st0" d="M382.7,402c-5.4,0-10.8,0-16.2,0c8-2.1,5.2-8.6,5.5-13.6c0.2-3.5,0-7,0.1-10.5c0.1-4,0.1-7.9-5.8-8.4
	c3.4-1.1,6.9-2.2,10.8-3.5c0.4,2,0.7,3.7,1,5.5c11.3-7.6,13.6-7.4,20.5,1.2c1.3-1.2,2.7-2.3,3.8-3.7c2.8-3.2,6.3-3.6,10-2.6
	c3.9,1.1,6.2,4.1,6.5,8c0.5,6.3,0.6,12.6,0.8,18.9c0.1,3.7-0.4,7.7,5.9,7.2c-0.2,0.5-0.4,0.9-0.6,1.4c-3.4,0.2-6.8,0.3-10.8,0.5
	c0-5.4,0.1-10.5,0-15.6c0-3.3,0-6.7-0.5-9.9c-0.6-3.7-2.4-6.7-6.8-6.5c-4,0.2-7.8,3.6-7.9,7.6c-0.2,6.2-0.3,12.4,0.2,18.5
	c0.2,1.9,2.7,3.5,4.2,5.4c-4.8,0-10.2,0-15.7,0c0-0.1-0.1-0.7-0.1-0.7c6.2-0.6,5.6-5.3,5.6-9.5c0-4.7,0.1-9.3-0.4-14
	c-0.4-3.8-2-7.3-6.7-7.3c-4.3,0-8.1,3.8-8.3,8.3c-0.2,4.2-0.1,8.3-0.1,12.5C377.6,395.5,376.4,400.4,382.7,402z"/>
<path class="st0" d="M727.7,402c-3.4,0-6.7,0-10.8,0c0-6,0-12.1,0-18.2c0-2.3-0.2-4.7-0.6-6.9c-0.6-3.6-2.3-6.6-6.3-6.5
	c-4.1,0.2-7.9,2.2-8.2,6.6c-0.5,6.8-0.4,13.6,0.1,20.4c0.1,1.4,2.9,2.7,4.9,4.4c-5.6,0-11,0-16.5,0c7.6-1.9,5.3-8.1,5.5-13
	c0.1-3.8,0-7.7-0.5-11.4c-0.4-3.7-2.1-6.8-6.4-7.1c-3.7-0.2-8.2,3.3-8.4,7.2c-0.3,6.6-0.2,13.3,0.3,19.9c0.1,1.5,2.9,2.7,4.8,4.4
	c-5.5,0-10.9,0-16.3,0c7.3-1.8,5.3-7.7,5.5-12.6c0.2-4.2-0.1-8.3,0.1-12.5c0.1-4-0.9-6.6-5.9-7.2c3.5-1.2,7-2.4,10.8-3.7
	c0.3,2,0.5,3.6,0.7,5c3.6-1.7,7.2-4.6,10.7-4.6c3.5,0,7,3,10.4,4.8c-0.1,0.5-0.2,1-0.3,1.5c1.3-1.2,2.7-2.4,3.9-3.7
	c2.8-3.1,6.4-3.5,10.1-2.4c3.8,1.2,6.1,4.2,6.5,8.1c0.5,6.1,0.5,12.3,0.7,18.4c0.1,3.8-0.4,8,5.9,7.8
	C728.2,401.1,728,401.6,727.7,402z"/>
<path class="st0" d="M820.1,467.5c3.4-1.1,6.8-2.2,10.5-3.3c0.2,2.3,0.4,4.3,0.6,7.1c1.3-1.1,2.2-1.7,2.9-2.5
	c3.6-4.3,8-5.8,13.4-3.8c5.7,2.1,8.6,6.3,9.6,12.3c1.9,11.3-10.4,28.4-26.1,23.1c0,5.6-0.4,11.1,0.2,16.5c0.2,1.9,2.9,3.5,4.5,5.3
	c-4.8,0-10.2,0-15.6,0c7-1.7,5.1-7.3,5.2-11.9c0.1-11.5-0.1-23,0.1-34.5C825.3,471.8,825,468.6,820.1,467.5z M851.6,484.4
	c-0.3-3.2-0.3-5.1-0.7-6.9c-1.3-5.9-6-9.3-11.6-8.6c-5.3,0.7-8.4,4.5-8.4,10.5c0,3,0.3,6-0.1,9c-0.6,4.9,1.8,7.5,6.1,8.8
	c4.7,1.5,8.8,0.2,11.3-3.9C850,490.3,850.8,486.6,851.6,484.4z"/>
<path class="st0" d="M691.5,480.1c5.3,0,10.6,0,14.7,0c-0.3,4.7-0.9,9.3-0.9,13.8c0,3.2-1,4.7-4.2,5.5c-7.3,1.9-14.5,3.7-22.1,1.7
	c-12.2-3.2-19.3-12.3-19.9-25.5c-0.6-13.5,6.1-24.4,17.6-28.4c9.5-3.3,18.9-2.4,28.6,1.3c-0.5,3.8-0.9,7.5-1.3,10.6
	c-2.1-3.1-3.6-7-6.4-8.8c-3-1.9-7.3-2.2-11.1-2.2c-9.6,0-16.2,5.1-18.9,14.1c-2.2,7.4-1.9,14.8,0.6,22.1
	c3.9,11.2,14.8,16.8,26.4,14.1c3.1-0.7,4.6-2.3,4.4-5.5c-0.1-1.3-0.1-2.7,0-4c0.6-4.6-0.8-7.5-6.1-7.2c-0.6,0-1.1-0.4-1.7-0.6
	C691.4,480.8,691.4,480.5,691.5,480.1z"/>
<path class="st0" d="M730.6,423.6c5.6-0.8,5.5-4.8,5.5-9c-0.1-12.5-0.1-24.9,0-37.4c0-3.9-0.5-7.1-5.8-7.7c3.5-1.2,7-2.4,10.9-3.7
	c0.3,2.4,0.5,4.3,0.8,6.7c1.1-0.8,2.2-1.3,2.8-2.1c3.6-4.5,8.2-5.6,13.4-3.8c5.6,1.9,8.6,6.1,9.6,11.7c2.2,12.4-11.2,28.8-25.8,23.6
	c0,6.2-0.2,12.2,0.2,18.2c0.1,1.1,2.8,2,5.1,3.5C741.3,423.6,735.9,423.6,730.6,423.6z M741.6,385.1c0,1.7,0.2,3.3,0,5
	c-0.5,4.2,1.1,7.1,5.1,8.5c4.2,1.5,8.2,1.1,11.4-2.4c4.7-5.2,5.4-15.8,1.4-21.5c-2.8-3.9-6.8-4.8-11-3.7c-4.2,1.1-6.9,3.9-6.8,8.6
	C741.7,381.5,741.7,383.3,741.6,385.1z"/>
<path class="st0" d="M381.7,500.4c-5.4,0-10.8,0-16.1,0c6.9-1.6,5.4-7,5.5-11.6c0.1-11,0-22,0-33c0-3.8,1.2-8.5-6.8-7
	c0.4-0.6,0.8-1.1,1.2-1.7c3.4-1,6.9-2,11.1-3.2c0,8.9,0,17.3,0,26.9c2.1-1.8,3.4-2.7,4.5-3.8c3.2-3.4,7-3.3,11.1-2.1
	c4.1,1.2,6,4.3,6.3,8.1c0.5,6.1,0.4,12.3,0.5,18.5c0.1,3.7-0.2,7.7,5.1,8.7c-3.3,0-6.7,0-10.7,0c0-4.5,0-9.1,0-13.7
	c0-3.3,0-6.7-0.3-10c-0.6-5.2-3.6-7.9-8-7.7c-4.8,0.2-8.3,3.7-8.4,8.7c-0.1,4-0.1,8,0,12C376.8,493.7,375.4,498.7,381.7,500.4z"/>
<path class="st0" d="M548.6,367c0-4.2,0.5-8.7-0.2-13.1c-0.3-1.9-2.9-3.5-4.7-5.5c2.8-0.7,6.2-1.6,10.4-2.7c0,2.3,0,4,0,5.8
	c0,13.1,0,26.3,0,39.4c0,7.6,0,7.6,6.4,11c-4.3,0-7.8,0-11.5,0c-0.1-1.8-0.2-3.5-0.4-6.2c-1.8,1.6-3.2,2.6-4.5,3.8
	c-6,5.5-14.9,4.3-19-2.7c-6.9-11.6-1-27.1,12-30.4C540.4,365.6,544.2,366.7,548.6,367z M548.9,382.1c0,0-0.1,0-0.1,0c0-1,0-2,0-3
	c-0.1-5.9-2.5-8.6-8.9-9.8c-4.7-0.8-8.6,1.4-10.4,6.4c-2.1,5.7-1.6,11.4,0.8,16.9c1.8,3.9,4.5,6.6,9.2,6.3c4.1-0.3,8.2-4.4,8.8-8.9
	C548.7,387.4,548.7,384.8,548.9,382.1z"/>
<path class="st0" d="M361.3,448c-0.6,4.5-1.1,8-1.5,11.7c-0.6-0.2-1.1-0.2-1.2-0.3c-1.6-8.5-6.9-12.2-16.2-11.2
	c-9.6,1-15.8,7.4-17.9,18.5c-2.8,14.7,4.3,27.8,17,30.8c6.8,1.6,13.2,0.2,19.1-3.4c0.3,0.3,0.6,0.6,0.9,1c-1.4,1.4-2.6,3.3-4.3,4.1
	c-10.4,5.3-24.7,3.2-32.5-4.6c-8.1-8.1-10.2-23.5-4.8-34.5c5-10.2,16.9-16.3,28.8-14.6C352.7,446.1,356.7,447.1,361.3,448z"/>
<path class="st0" d="M626.3,397.4c-1.5,1.2-2.9,2.8-4.7,3.7c-10.4,5-23.7,3.1-31.7-4.3c-8-7.5-10.5-21.5-5.9-33.4
	c3.8-9.8,14.1-16.5,25.7-16.3c4.3,0.1,8.5,1.3,12.7,1.9c3.1,0.4,3.7,2.1,3.1,4.9c-0.6,2.5-0.8,5.1-1.1,7.7c-0.6-0.2-1.1-0.3-1.1-0.5
	c-0.2-4.3-0.9-8.1-5.9-9.7c-7.1-2.3-13.9-2.6-19.9,2.1c-8.6,6.7-9.9,16.3-8.2,26.2c2.9,17.2,17.9,24.7,33.8,17.3
	c0.7-0.3,1.4-0.7,2.1-1C625.6,396.5,626,397,626.3,397.4z"/>
<path class="st0" d="M260,369.3c3.3-1.1,6.7-2.2,10.4-3.4c0.3,2.1,0.6,3.9,0.9,6.4c1.8-1.6,3.2-2.6,4.4-3.9
	c3.3-3.4,7.6-3.4,11.1-1.5c2.6,1.5,5.2,4.9,5.8,7.8c1.1,5.5,0.7,11.3,0.9,16.9c0.1,4.1-1,8.8,5.1,10.3c-3.3,0-6.6,0-10.7,0
	c0-5.7,0.1-11.6,0-17.6c0-2.5-0.1-5-0.6-7.4c-0.8-4.1-3.3-6.5-7.6-6.6c-4.2,0-8.4,3.4-8.6,7.6c-0.3,6.3-0.4,12.7,0.2,19
	c0.2,1.8,3.1,3.2,5,5.1c-5.2,0-10.6,0-16,0c7.3-2.2,4.7-8.2,4.9-12.9c0.3-4.2,0-8.3,0-12.5c0-3.4,0-6.8-6-5.3
	C259.6,370.6,259.8,369.9,260,369.3z"/>
<path class="st0" d="M205.9,369.3c3.5-1.1,6.9-2.2,11-3.5c0,9.5,0,18.6,0,27.6c0,3.5-0.5,7.4,5.7,7.1c-0.3,0.5-0.5,1-0.8,1.5
	c-3.4,0.1-6.7,0.3-10.5,0.5c-0.1-2.1-0.2-3.9-0.4-6.7c-1.8,1.7-3,2.8-4.2,4c-3.6,3.4-8,4.2-12.5,2.6c-4.6-1.6-5-5.8-5.1-9.9
	c-0.1-5-0.1-10-0.1-15c0-3.7,0.7-8.1-6.7-6.4c0.3-0.6,0.7-1.1,1-1.7c3.4-1.1,6.8-2.3,11.3-3.7c0,5.1,0,9.6,0,14.2
	c0,3.3,0,6.7,0.1,10c0,4.3,0.9,8.1,6.1,8.7c4,0.5,9.3-2.7,9.8-6.8c0.7-6.1,0.6-12.3,0.2-18.4C210.8,372,207.9,370.8,205.9,369.3z"/>
<path class="st0" d="M981.8,401.9c0-5.4,0.1-10.9,0-16.4c0-2.8-0.2-5.7-0.6-8.4c-0.7-4.1-3.2-6.6-7.5-6.7c-4.2-0.2-8.5,3.3-8.7,7.4
	c-0.3,6.3-0.4,12.7,0.2,19c0.2,1.8,2.9,3.4,4.7,5.2c-5.1,0-10.5,0-15.9,0c7.2-1.9,5-7.7,5.2-12.3c0.1-4,0-8,0-12
	c0-5.8,0-5.8-6.1-8.1c4.3-1.4,7.7-2.5,11.5-3.7c0.2,2.2,0.4,4,0.5,5.1c3.8-1.7,7.5-4.4,11.4-4.8c6.3-0.7,9.9,3,10.4,9.5
	c0.4,5.5,0.3,11,0.4,16.5c0.1,4.1-0.5,8.5,5.4,9.8C989.3,401.9,986,401.9,981.8,401.9z"/>
<path class="st0" d="M480,369.3c3.4-1.1,6.9-2.2,10.7-3.4c0.2,2.2,0.3,4,0.6,6.5c1.8-1.6,3.2-2.7,4.4-4c3.3-3.4,7.3-3,11.2-1.8
	c4,1.2,5.8,4.4,6.1,8.3c0.4,6,0.3,12,0.5,18c0.1,3.8-0.2,7.9,5.4,8.8c-3.4,0-6.7,0-10.8,0c0-5.1,0.1-10.3,0-15.6
	c-0.1-3-0.2-6-0.6-8.9c-0.6-4.3-3.3-6.9-7.8-6.9c-4.4,0-8.4,3.7-8.6,8.2c-0.2,4.8,0,9.7-0.1,14.5c-0.1,4-0.4,8,5.4,8.8
	c-5.3,0-10.7,0-16,0c6-1.1,5-5.7,5-9.7c0-4.7,0-9.3,0-14c0-3.7,1.1-8.2-6.1-7.5C479.4,370.2,479.7,369.7,480,369.3z"/>
<path class="st0" d="M362.6,402.1c-3.4,0-6.7,0-10.4,0c-0.1-1.8-0.3-3.6-0.5-6.3c-1.7,1.6-3,2.7-4.2,3.9c-3.8,3.5-8.3,4.3-13,2.5
	c-4.3-1.7-4.6-5.7-4.6-9.6c-0.1-5-0.1-10-0.2-15c0-3.8,0.3-7.9-6.5-6.6c0.2-0.5,0.5-1,0.7-1.5c3.4-1.1,6.8-2.3,11.1-3.7
	c0,6.1,0,11.7,0,17.3c0,2.3,0,4.7,0.1,7c0.3,4.2,1.1,8.1,6.4,8.5c4.2,0.4,9.3-2.9,9.8-7.5c0.7-5.7,0.6-11.6,0.1-17.4
	c-0.1-1.4-3-2.6-5.1-4.2c3.2-1.1,6.7-2.2,11.1-3.7c0,3.9,0,7.3,0,10.7c0,5.5,0,11,0,16.5c0,3.8-0.6,7.9,5.7,8
	C363.1,401.3,362.9,401.7,362.6,402.1z"/>
<path class="st0" d="M795.3,369.4c3.5-1.1,7-2.2,11.3-3.6c0,6.6,0,12.7,0,18.8c0,2.5,0,5,0,7.5c0.1,4-0.9,8.5,5.1,9.8
	c-3.3,0-6.6,0-10.4,0c-0.2-1.6-0.4-3.4-0.7-5.8c-2.1,1.8-3.8,4.2-5.9,4.8c-3.6,1-7.7,1.8-11.3,1.1c-3.9-0.8-4.4-5-4.5-8.6
	c-0.1-5.5-0.2-11-0.2-16.5c0-3.7-0.5-6.8-5.7-6.2c0-0.4,0-0.8,0-1.2c3.5-1.2,7-2.3,11.3-3.8c0,9-0.3,17.3,0.2,25.6
	c0.1,2.3,2.2,5.9,4.1,6.4c2.6,0.7,6.4-0.2,8.5-1.8c2-1.6,3.3-4.9,3.7-7.7c0.6-3.7,0-7.6,0.2-11.5c0.2-4-0.9-6.6-5.8-6.1
	C795.3,370.3,795.3,369.8,795.3,369.4z"/>
<path class="st0" d="M800.1,467.6c3.9-1.2,7.4-2.2,11.6-3.5c0,8.6,0,16.8,0,24.9c0,4.4-1.4,9.5,4.9,11.4c-3.4,0-6.7,0-10.4,0
	c-0.2-1.8-0.4-3.7-0.5-5.1c-3.8,2-7.3,4.8-11.2,5.7c-6.4,1.5-10.2-1.8-10.5-8.4c-0.3-5.7-0.2-11.3-0.3-17c-0.1-5.7-0.2-5.7-6.8-7.5
	c4.6-1.5,8-2.6,12.2-4c0,6,0,11.6,0,17.1c0,2.5,0,5,0.2,7.5c0.3,3.9,1.1,7.5,5.8,8.1c4.5,0.6,8.8-1.5,9.6-5.5
	c1.3-6.6,1-13.5,0.9-20.2C805.5,470.1,802.5,469.1,800.1,467.6z"/>
<path class="st0" d="M740.9,483.7c0-14.1,10.7-23,22.6-18.6c8.6,3.2,12.7,13.5,9.5,23.9c-2.9,9.4-11.9,14.9-20.8,12.7
	C745.2,499.9,740.9,493.1,740.9,483.7z M746.6,480.9c-0.2,0.2-0.5,0.3-0.7,0.5c1.9,5,2.9,10.6,5.8,14.9c3.8,5.7,11.3,4.7,14.1-1.5
	c3.7-8.5,2.9-17-2.3-24.6c-4.1-6.1-12.3-4.8-14.9,2.1C747.6,475,747.3,478,746.6,480.9z"/>
<path class="st0" d="M917.1,385.2c0-10.3,6.1-18.2,14.6-19.1c13.3-1.4,21.9,10.4,17.8,24.5c-2.5,8.7-10.9,14.4-19.2,13.2
	C922.2,402.5,917.1,395.3,917.1,385.2z M944.8,385.9c-1.3-4.1-2.2-9-4.4-13.1c-3.4-6.3-11.2-6.4-14.7-0.8c-3.8,6.3-2.9,20,1.8,25.7
	c4.6,5.6,12,4.8,14.8-1.9C943.5,393,943.9,389.8,944.8,385.9z"/>
<path class="st0" d="M665.1,384c0,8.9-4.4,16-11.6,18.7c-5.5,2-10.9,2-15.5-2.1c-6.2-5.4-6.9-12.7-5.6-20.2
	c1.8-10,9.2-15.4,18.9-14.4C659.6,366.9,665.2,374.2,665.1,384z M659.8,385.6c-1.5-4.2-2.6-9.4-5.2-13.6c-3.5-5.7-10.9-5.3-14.1,0.1
	c-3.8,6.3-2.8,20,1.9,25.7c4.7,5.6,12,4.7,14.8-2C658.3,392.9,658.8,389.7,659.8,385.6z"/>
<path class="st0" d="M999.8,376.8c-1.4-4.2-1.1-6.7,2.1-8c2.9-1.2,5.8-2.5,8.9-2.8c6.4-0.6,9.8,2.3,10.3,8.7
	c0.5,6.6,0.4,13.3,0.9,19.9c0.2,2.4,1.6,4.6,2.5,7.2c-1.7,0-4.7,0-8.1,0c-0.1-1.4-0.1-3-0.3-5.6c-2,1.5-3.5,2.6-5,3.7
	c-5.3,4-10.1,4.1-13.1,0.2c-3.5-4.6-2.2-12.4,3-15.3c3.5-2,7.7-2.7,11.7-4c1.1-0.4,2.2-0.6,3.4-1c0.3-4.4-0.8-7.8-5-9.4
	C1005.6,368.2,1001.9,370.4,999.8,376.8z M1015.7,382.8c-8.4,0.3-13.3,3.1-13.6,8.5c-0.1,2.2,0.9,5.1,2.5,6.4c1.3,1,4.5,0.7,6.3-0.1
	C1016.4,395,1017.4,391.3,1015.7,382.8z"/>
<path class="st0" d="M867.6,402c-1.9,0-4.9,0-8.3,0c-0.1-1.6-0.3-3.4-0.5-5.7c-1.9,1.4-3.4,2.4-4.8,3.5c-5.5,4.2-10.4,4.3-13.4,0
	c-3.4-4.9-1.7-12.5,3.8-15.5c2.7-1.5,5.9-2.2,8.9-3.1c1.7-0.5,3.5-0.8,5.5-1.3c0.4-4.4-0.7-7.7-4.8-9.5c-4.6-2-7.2-0.7-11.3,5.1
	c-1.4-4.4-1.4-5,2.3-6.9c2.6-1.3,5.5-2.4,8.4-2.6c6.6-0.5,10,2.4,10.5,9.1c0.5,6.6,0.3,13.3,0.8,19.9
	C865,397.3,866.5,399.4,867.6,402z M858.7,382.6c-9.4,1-13.6,3.6-13.7,9.1c0,2.1,1.2,4.9,2.8,6.3c1.1,0.9,4.1,0.5,5.9-0.3
	C859.2,395.1,860.2,392,858.7,382.6z"/>
<path class="st0" d="M602.6,523.2c1.1-3.6,1.6-5.2,2.2-7.2c5.2,3.8,7.8,0.5,9.8-3.5c2.8-5.4,4.4-10.8,1.5-17
	c-3.1-6.6-5-13.7-7.8-20.5c-1.4-3.3-3.4-6.4-5.2-9.6c4.4,0,9.4,0,14.5,0c-6.4,1.4-4.5,5.4-3.2,9.2c2.2,6.1,4.4,12.2,6.5,18.3
	c0.5,0.1,0.9,0.1,1.4,0.2c2.7-7.7,5.5-15.3,7.8-23.1c0.3-1-2.2-2.9-3.6-4.6c3.9,0,7.9,0,10.7,0c-2.3,4.6-5.3,9.4-7.5,14.6
	c-4.5,10.9-8.5,22-13,33c-1.2,3-3.1,6-5.5,8C609.5,522.5,606.4,522.4,602.6,523.2z"/>
<path class="st0" d="M256.6,402c-3,0-6.1,0-9.5,0c-0.2-1.7-0.3-3.4-0.6-5.9c-2,1.5-3.8,2.4-5.1,3.8c-3.9,4.5-10.4,3.7-13.1,0
	c-3.1-4.2-1.9-12.4,2.8-15c3.9-2.1,8.3-3,12.6-4.4c0.9-0.3,1.9-0.6,2.9-0.9c0-4.3-1-7.9-5.2-9.4c-5.5-2-9.2,0.1-11,6.9
	c-2-4.4-1.4-6.7,1.7-8.2c2.4-1.1,4.8-2.5,7.3-2.8c8-1.1,11.9,2.2,12.3,10.3c0.3,5.8,0.2,11.6,0.3,17.4
	C252.2,397.2,252,400.7,256.6,402z M246.9,381.1c-4.9,2.3-9.1,3.6-12.3,6c-3.2,2.5-2.9,7.9-0.3,10.3c3.3,3.1,6.1,0.9,8.9-0.9
	C248.7,393.1,246.8,387.9,246.9,381.1z"/>
<path class="st0" d="M466.5,379.7c0.1-4.3-0.9-7.9-5.1-9.4c-5.5-2-9.2,0.1-11,6.8c-1.7-6-1.7-6.3,2.1-8.3c2.3-1.2,4.8-2.3,7.4-2.6
	c7.6-0.9,11.4,2.2,11.9,9.8c0.4,6,0.2,12,0.3,18c0.1,3.3-0.4,7,4.6,7.9c-3,0-6.1,0-9.6,0c-0.2-1.3-0.4-3.1-0.7-5.5
	c-1.9,1.4-3.5,2.5-5,3.7c-5.2,4-10.1,4-13.1,0c-3.2-4.3-2.1-12.3,2.7-15c3.7-2,8-2.9,12.1-4.3C464.2,380.4,465.3,380,466.5,379.7z
	 M466.6,382.8c-8.9,0.2-13.7,3.1-14.1,8.9c-0.1,2,1,4.8,2.5,6c1.2,1,4.1,0.9,5.9,0.2C467.7,395.1,467.6,389.3,466.6,382.8z"/>
<path class="st0" d="M414.1,482.9c-0.5,13.2,6.2,17,20.9,12.6c-3.1,7.6-16.3,8.9-22.8,2.2c-8.8-9-5-27.8,6.5-32.5
	c8.7-3.6,18,1.5,17.7,13.8c0,1-2.3,2.6-3.7,2.7C426.7,482.4,420.5,482.6,414.1,482.9z M414.2,479.7c5.3,0,10.5,0,16,0
	c0.1-4.9,0-9.7-4.4-12.2c-1.9-1-5.4-0.7-7.4,0.5C414.5,470.4,413.3,474.6,414.2,479.7z"/>
<path class="st0" d="M1030.4,348.6c3.4-0.9,6.8-1.8,10.9-2.9c0.1,2.1,0.3,3.9,0.3,5.6c0,14.1,0,28.3,0,42.4c0,3.6-0.1,7.3,5.9,6.7
	c-0.3,0.4-0.6,0.9-0.8,1.3c-5.4,0-10.8,0-16.3,0c8.4-1.9,5.3-8.7,5.4-13.8c0.3-10.3-0.1-20.6,0.2-30.9c0.1-4.2-0.4-7.4-6-7.1
	C1030.2,349.5,1030.3,349.1,1030.4,348.6z"/>
<path class="st0" d="M524.2,490.4c3.3,7.7,6.7,10.6,12.8,8.5c2.4-0.8,5-3.8,5.8-6.3c1.2-3.5-1.7-5.3-4.9-6.2
	c-2.4-0.7-4.8-1.5-7.1-2.2c-4.7-1.5-7.2-4.4-6.9-9.6c0.3-5.2,3-8.3,7.8-9.7c1.4-0.4,2.9-0.7,4.4-0.7c8.3-0.5,9.9,1.3,8.5,10.6
	c-0.7-1.7-1.1-2.5-1.5-3.4c-1.9-4.5-8.9-6.5-12.6-3.5c-3.4,2.7-2.8,8,1.3,9.9c2.5,1.2,5.4,1.7,8.1,2.5c3.9,1.1,7.3,2.6,7.9,7.2
	c0.7,4.9-1,8.9-5.1,11.7c-5.9,4-12.2,3.5-19.3,1.3C523.7,497.1,523.9,493.7,524.2,490.4z"/>
<path class="st0" d="M892.7,397.8c-1.9,4.7-5.1,6.1-9.3,5c-4.1-1-4.7-4.5-4.8-7.8c-0.2-7.3-0.1-14.6-0.1-22.2c-2-0.3-3.5-0.4-5-0.6
	c6.8-2.3,5.4-7.6,4.9-12.5c-0.4-4.4,3.1-4.2,6.3-6c-0.3,5.3-0.5,9.8-0.8,14.7c3.1,0,5.9,0,8.7,0c1.3,3.1-0.2,4.1-2.9,3.8
	c-5-0.7-6.3,1.5-5.9,6.2c0.4,4.1,0.1,8.3,0.1,12.5C884.1,398.1,885,399,892.7,397.8z"/>
<path class="st0" d="M320.9,397.9c-1.9,4.9-5.4,5.9-9.5,4.8c-4-1.1-4.4-4.5-4.4-8c0-7.3,0-14.6,0-22c-1.9-0.2-3.4-0.4-4.8-0.6
	c6.6-2.6,4.3-8.2,4.9-12.9c0.3-2.1,2.8-3.8,4.3-5.7c0.4,0.3,0.8,0.6,1.3,0.9c0,4.6,0,9.1,0,14c3,0,5.7,0,8.5,0
	c0.3,0.4,0.6,0.8,0.9,1.2c-1.2,0.8-2.2,2.1-3.5,2.4c-1.7,0.4-3.6,0.1-5.9,0.1c0,7.9-0.2,15.4,0.1,22.8
	C312.9,398.4,314.3,398.7,320.9,397.9z"/>
<path class="st0" d="M712.7,467.6c3.5-1.1,7-2.2,10.8-3.4c0.2,2.4,0.3,4.5,0.5,6.7c1.8-1.7,3.4-3.6,5.4-4.7c1.7-1,3.9-1.2,5.9-1.8
	c0.3,1.8,0.8,3.6,1,5.4c0.1,1.3-0.4,2.6-0.4,2.9c-2.9-0.5-6.5-2.2-8-1.1c-2.1,1.5-3.5,5.1-3.9,8c-0.6,4.2,0,8.6-0.2,13
	c-0.2,3.6,0.5,6.3,4.9,6.3c0.6,0,1.3,0.6,3.2,1.6c-7.4,0-13.3,0-19.2,0c6.8-1.4,5.4-6.7,5.4-11.1c0.1-4.3-0.1-8.7,0-13
	C718.3,472.3,718.4,468.5,712.7,467.6z"/>
<path class="st0" d="M557.7,471c-2.2-0.2-3.6-0.3-5.1-0.4c0-0.1,4.8-13.8,4.8-13.8c1.7-1.6,3.4-3.3,5.1-4.9c0.4,0.3,0.8,0.6,1.2,0.9
	c-0.3,4.5-0.5,9.1-0.8,14.2c3.4,0,6.2,0,9.6,0c-1.4,6.2-6.5,2.2-9.4,4.7c0,6.7-0.4,14,0.1,21.3c0.4,5.3,4.7,3.8,8.4,3
	c-1.8,4.2-4.2,6.1-8.6,5.3c-4.2-0.8-5.3-3.7-5.4-7.2C557.7,486.4,557.7,478.8,557.7,471z"/>
<path class="st0" d="M820.9,372.7c-2.2-0.3-3.6-0.4-5-0.6c6.4-2.4,5-7.6,5-12.3c-0.1-3.7,0-3.7,5.7-5.5c0,4.6,0,9.1,0,14
	c3,0,5.8,0,8.7,0c0.2,0.5,0.5,1,0.7,1.5c-1.4,0.8-2.9,2.3-4.2,2.2c-4.9-0.5-6,1.7-5.7,6c0.3,4.1,0,8.3,0.1,12.5
	c0.1,7.6,1,8.4,8.5,7.4c-1.5,4.5-4.6,5.8-8.8,5c-4.1-0.8-5-3.9-5-7.5C820.9,388,820.9,380.5,820.9,372.7z"/>
<path class="st0" d="M575.2,467.6c3.5-1.1,7-2.2,10.7-3.4c0.2,2.4,0.5,4.5,0.8,7.4c2-2.2,3.2-4.2,5-5.3c1.8-1.1,4.2-1.3,6.3-1.9
	c0.3,1.7,0.8,3.4,0.9,5.1c0.1,1.3-0.1,2.6-0.3,4.3c-0.8-0.4-1.4-0.5-1.9-0.8c-4.2-3.6-8.8-2.7-9.6,2.7c-1,6.7-0.8,13.6-0.3,20.3
	c0.1,1.5,3.7,2.7,6.3,4.4c-6.2,0-12,0-17.7,0c8-2.6,4.9-9.3,5.4-14.7c0.3-3-0.1-6,0.1-9C581.1,472.4,581,468.5,575.2,467.6z"/>
<path class="st0" d="M502.4,467.6c3.4-1.1,6.8-2.2,11.2-3.6c0,2.4,0,4.4,0,6.5c0,6.3,0,12.7,0,19c0,4.3-1.2,9.2,5.1,10.9
	c-5.4,0-10.8,0-16.2,0c7.2-1.6,5.4-7.2,5.5-11.9c0.1-4.3-0.1-8.7,0-13c0.1-3.9,0-7.5-6.3-6.3C502,468.7,502.2,468.1,502.4,467.6z"/>
<path class="st0" d="M896.4,401.8c5.8-1,5.4-5.4,5.4-9.6c0-5,0-10,0-15c0-3.7,0.1-7.6-6.4-6.2c0.2-0.5,0.4-1,0.6-1.5
	c3.4-1.1,6.7-2.3,11.2-3.8c0,4.8,0,9,0,13.2c0,4.7,0,9.3,0,14c0,3.8-0.2,8,5.4,8.8C907.2,401.8,901.8,401.8,896.4,401.8z"/>
<path class="st0" d="M903.9,358.8c-1.6-3-3.2-4.7-3-6.1c0.2-1.4,2.3-2.5,3.5-3.8c1.1,1.4,3.1,2.7,3.2,4.2
	C907.7,354.5,905.8,356,903.9,358.8z"/>
<path class="st0" d="M515.6,451.3c-2.5,1.8-4,3.7-5.2,3.5c-1.3-0.2-3.2-2.5-3.2-3.8c0-1.3,2-3.5,3.3-3.6
	C511.8,447.3,513.3,449.3,515.6,451.3z"/>
</svg>
